<?xml version="1.0" encoding="UTF-8" standalone="no"?>
<svg width="381px" height="297px" viewBox="0 0 381 297" version="1.1" xmlns="http://www.w3.org/2000/svg" xmlns:xlink="http://www.w3.org/1999/xlink" xmlns:sketch="http://www.bohemiancoding.com/sketch/ns">
    <!-- Generator: Sketch 3.0.3 (7891) - http://www.bohemiancoding.com/sketch -->
    <title>Untitled 8</title>
    <desc>Created with Sketch.</desc>
    <defs></defs>
    <g id="Page-1" stroke="none" stroke-width="1" fill="none" fill-rule="evenodd" sketch:type="MSPage">
        <g id="#ffffffff" sketch:type="MSLayerGroup">
            <path d="M46.32,4.82 C52.67,1.99 59.76,2.07 66.39,0.32 C68.25,4.98 69.38,10.22 67.44,15.07 C70.55,21.1 70.53,28.13 69.07,34.62 C64.66,29.45 61.79,23.25 58.92,17.16 C59.83,17.09 61.65,16.95 62.56,16.88 C58.26,14.3 53.66,12.3 49.02,10.42 C46.89,16.25 51.28,21.2 54.4,25.6 C56.7,28.54 57.38,32.28 57.63,35.91 C45.97,30.29 39,18.9 31.66,8.78 C36.61,6.83 41.75,5.05 45.91,1.62 C46.01,2.42 46.22,4.02 46.32,4.82 L46.32,4.82 Z" id="Shape" fill="#AAAAAA" sketch:type="MSShapeGroup"></path>
            <path d="M78.36,0.78 C84.17,1.26 90.46,2.11 94.74,6.49 C90.61,10.15 88.67,15.51 88.22,20.89 C87.81,26.31 86.39,31.58 84.51,36.66 C81.51,33.05 78.48,28.9 78.43,24 C78.32,21.02 79.9,18.38 81.1,15.76 C79.81,13.51 78.37,11.3 77.58,8.81 C76.77,6.13 77.86,3.41 78.36,0.78 L78.36,0.78 Z" id="Shape" fill="#AAAAAA" sketch:type="MSShapeGroup"></path>
            <path d="M105.28,19.55 C106.21,14.51 106.34,9.32 107.9,4.4 C110.83,5.43 113.76,6.47 116.69,7.51 C114.9,17.27 112.38,26.88 110.54,36.62 C112.37,37.52 114.19,38.48 115.75,39.82 C115.47,41.83 115.21,43.84 114.95,45.85 C121.66,35 120.64,21.56 125.89,10.15 C128.08,10.61 130.27,11.08 132.46,11.55 C132.83,20.92 124.18,28.63 126.98,38.16 C123.27,42.2 119.76,46.42 116.54,50.85 C114.6,49.68 112.7,48.46 110.83,47.19 C110.43,45.7 110.04,44.2 109.67,42.69 C107.17,42.1 104.67,41.5 102.17,40.9 C102.86,35.37 103.61,29.48 101.1,24.27 C102.67,22.91 104.9,21.8 105.28,19.55 L105.28,19.55 Z" id="Shape" fill="#AAAAAA" sketch:type="MSShapeGroup"></path>
            <path d="M13.88,25.83 C17.5,23.3 20.3,19.86 22.91,16.34 C31.5,24.34 41.15,32.25 45.1,43.73 C39.78,41.6 34.26,39.73 29.49,36.46 C27.43,35.13 26.63,32.7 25.57,30.61 C21.16,30.68 17.22,28.51 13.88,25.83 L13.88,25.83 Z" id="Shape" fill="#AAAAAA" sketch:type="MSShapeGroup"></path>
            <path d="M147.96,17.16 C150.75,18.28 153.54,19.4 156.33,20.52 C149.71,32.23 149.16,47.15 139.05,56.84 C135.73,50.49 138.54,42.89 143.42,38.23 C142.58,30.88 145.25,23.83 147.96,17.16 L147.96,17.16 Z" id="Shape" fill="#AAAAAA" sketch:type="MSShapeGroup"></path>
            <path d="M164.46,25.39 C167.15,26.42 169.35,28.31 171.5,30.17 C168.91,36.48 165.14,42.21 160.54,47.21 C158.98,53.08 156.9,59.96 150.48,62.16 C151.13,56.22 151.79,49.33 157.03,45.48 C155.43,41.62 153.64,37.83 152.41,33.83 C153.83,33.54 155.26,33.25 156.69,32.96 C157.72,33.62 158.75,34.29 159.78,34.95 C161.04,31.63 162.37,28.3 164.46,25.39 L164.46,25.39 Z" id="Shape" fill="#AAAAAA" sketch:type="MSShapeGroup"></path>
            <path d="M-0.44,52.1 C1.13,45.87 4.15,40.11 7.96,34.96 C19.53,39.43 31.26,44.36 40.62,52.73 C35.27,56.01 28.43,51.73 23.38,55.81 C16.53,50.34 7.44,53.69 -0.44,52.1 L-0.44,52.1 Z" id="Shape" fill="#AAAAAA" sketch:type="MSShapeGroup"></path>
            <path d="M189.53,37.99 C192.49,39.77 195.42,41.6 198.3,43.5 C191.31,56.46 181.38,67.48 171.75,78.51 C170.25,72.09 175.99,67.22 176.3,61.04 C177.44,60.89 178.57,60.75 179.71,60.61 C178.55,51.62 186.33,45.57 189.53,37.99 L189.53,37.99 Z" id="Shape" fill="#AAAAAA" sketch:type="MSShapeGroup"></path>
            <path d="M195.76,66.72 C199.36,60.96 202.74,55.05 206.32,49.27 C209.57,50.93 212.38,53.27 215.03,55.76 C204.71,67.01 195.1,79.17 182.66,88.2 C181.93,87.24 181.2,86.29 180.48,85.33 C181.89,83.08 183.3,80.84 184.71,78.59 C185.4,78.56 186.78,78.51 187.47,78.49 C188.21,76.29 188.64,73.91 189.89,71.94 C191.79,70.14 194.36,69.02 195.76,66.72 L195.76,66.72 Z" id="Shape" fill="#AAAAAA" sketch:type="MSShapeGroup"></path>
            <path d="M90.74,54.09 C98.33,57.6 107.1,58.81 113.66,64.32 C117.36,67.04 116.21,72.26 115.66,76.15 C112.92,88.31 108.32,100.53 99.85,109.91 C97.99,112.34 94.56,112.15 91.89,111.52 C84.56,109.68 77.79,106.24 70.8,103.46 C77.45,87 84.1,70.55 90.74,54.09 L90.74,54.09 Z M98.36,66.69 C96.63,71.66 94.97,76.68 92.55,81.38 C89.53,87.58 85.87,94.22 87.38,101.38 C90.24,100.72 93.51,99.97 95.16,97.25 C100.77,88.95 102.14,78.78 104.98,69.36 C102.77,68.47 100.56,67.58 98.36,66.69 L98.36,66.69 Z" id="Shape" fill="#AAAAAA" sketch:type="MSShapeGroup"></path>
            <path d="M-0.07,59.22 C13.21,58.74 26.72,58.72 39.64,62.27 C39.98,63.81 40.33,65.34 40.66,66.88 C34.14,71.35 26.23,66.45 19.27,69.05 C13.36,70.99 7.09,71.24 0.93,71.05 C0.59,67.11 0.26,63.16 -0.07,59.22 L-0.07,59.22 Z" id="Shape" fill="#AAAAAA" sketch:type="MSShapeGroup"></path>
            <path d="M228.36,65.18 C231.81,67.39 234.51,70.47 237.04,73.64 C226.73,86.27 212.87,95.15 200.38,105.4 C199.77,97.66 205.83,92.16 211.04,87.49 C213.54,77.8 223.3,73.22 228.36,65.18 L228.36,65.18 Z" id="Shape" fill="#AAAAAA" sketch:type="MSShapeGroup"></path>
            <path d="M125.97,68.16 C134.19,71.46 142.42,74.77 150.64,78.07 C149.36,81.26 148.07,84.45 146.78,87.64 C142.23,85.79 137.67,83.95 133.11,82.1 C131.77,85.34 130.44,88.57 129.11,91.81 C132.74,94.58 137.13,95.96 141.4,97.4 C140.06,100.69 138.72,103.99 137.37,107.29 C133.23,105.62 129.08,103.94 124.94,102.27 C123.64,105.47 122.34,108.68 121.04,111.89 C125.39,115.18 130.67,116.71 135.76,118.44 C134.46,121.71 133.15,124.98 131.85,128.25 C123.2,124.75 114.57,121.23 105.93,117.73 C112.61,101.21 119.29,84.68 125.97,68.16 L125.97,68.16 Z" id="Shape" fill="#AAAAAA" sketch:type="MSShapeGroup"></path>
            <path d="M28.15,76.06 C31.18,75.28 33.98,73.75 37.05,73.13 C39.72,73.11 42.27,73.98 44.82,74.67 C40.46,80.28 33.44,82.82 26.54,83.23 C22.78,89.56 14.95,90.71 9.35,94.74 C7.09,91.38 4.8,88.05 2.55,84.7 C10.21,79.65 19.48,78.44 28.15,76.06 L28.15,76.06 Z" id="Shape" fill="#AAAAAA" sketch:type="MSShapeGroup"></path>
            <path d="M156.18,80.32 C159.79,81.79 163.41,83.26 167.03,84.72 C164.58,95.79 160.8,106.49 157.1,117.19 C165.83,109.32 168.31,97.32 174.66,87.83 C178.37,89.32 182.08,90.81 185.79,92.31 C176.15,107.63 167.1,123.31 157.1,138.4 C152.58,136.58 148.06,134.78 143.55,132.95 C147.8,115.42 152,97.87 156.18,80.32 L156.18,80.32 Z" id="Shape" fill="#AAAAAA" sketch:type="MSShapeGroup"></path>
            <path d="M230.29,91.15 C234.19,87.66 238.3,84.41 242.24,80.96 C244.54,82.54 247.22,83.88 248.66,86.39 C250.48,89.49 251.19,93.06 252.21,96.47 C248.06,96.11 243.67,95.92 239.82,97.78 C229.47,102.43 221.85,111.14 213.06,118.04 C212.07,115.91 210.01,113.6 211.32,111.15 C213.15,105.93 218.47,103.55 222.99,101.16 C225.43,97.83 227.13,93.92 230.29,91.15 L230.29,91.15 Z" id="Shape" fill="#AAAAAA" sketch:type="MSShapeGroup"></path>
            <path d="M18.6,106.28 C27.35,97.14 39.6,92.98 50.3,86.71 C51.74,88.12 53.18,89.54 54.62,90.95 C46.32,95.61 38.19,101.86 34.94,111.18 C34.16,109.48 34.16,107.61 34.24,105.78 C30.44,107.95 27.26,110.97 24.19,114.04 C22.21,111.54 20.35,108.95 18.6,106.28 L18.6,106.28 Z" id="Shape" fill="#AAAAAA" sketch:type="MSShapeGroup"></path>
            <path d="M56.86,97.86 C59.54,96.32 62.75,97.03 65.67,97.11 C57.41,106.6 50.79,117.97 39.87,124.75 C34.99,127.82 28.87,127.37 23.58,125.7 C23.91,120.95 26.22,116.7 28.93,112.9 C30.56,113.3 32.17,113.99 33.88,113.89 C38.65,110.99 42.21,105.05 48.55,105.79 C51.17,103.01 53.5,99.82 56.86,97.86 L56.86,97.86 Z" id="Shape" fill="#AAAAAA" sketch:type="MSShapeGroup"></path>
            <path d="M212.16,143.36 C221.37,130.07 232.45,118.26 243.39,106.41 C245.45,108.2 247.52,109.98 249.59,111.76 C248.22,113.77 246.86,115.78 245.49,117.79 C254.6,127.04 268.07,131.74 274.53,143.57 C273.25,145.21 271.98,146.85 270.7,148.49 C259.28,142.22 249.81,133.13 239.67,125.08 C237.91,127.06 236.16,129.03 234.41,131 C240.84,136.97 248.76,140.96 255.49,146.55 C258.83,149.48 262.09,153.5 261.6,158.23 C257.67,163.59 253.5,169.04 247.8,172.64 C235.52,163.39 223.07,154.26 212.16,143.36 L212.16,143.36 Z M226.89,138.65 C226.31,140.04 225.73,141.44 225.15,142.83 C229.76,145.83 233.92,149.42 237.92,153.18 C241.71,156.71 246.34,159.86 251.77,159.59 C249.08,152.9 242.58,149.24 237.48,144.62 C234.46,141.84 230.74,140 226.89,138.65 L226.89,138.65 Z" id="Shape" fill="#AAAAAA" sketch:type="MSShapeGroup"></path>
            <path d="M43.59,138.89 C52.95,128.39 63.62,119.22 74.1,109.87 C75.97,110.64 77.84,111.4 79.71,112.17 C71.3,124.43 59.86,134.12 50.39,145.51 C48.05,143.38 45.78,141.17 43.59,138.89 L43.59,138.89 Z" id="Shape" fill="#AAAAAA" sketch:type="MSShapeGroup"></path>
            <path d="M83.98,117.95 C86.07,116.01 89.1,116.38 91.73,116.2 C89.36,123.69 84.13,129.74 80.38,136.52 C76.01,144.22 72.44,152.44 66.81,159.35 C63.62,156.75 60.41,154.18 57.2,151.63 C62.49,143.2 68.67,134.89 77.47,129.85 C78.5,125.41 80.24,120.82 83.98,117.95 L83.98,117.95 Z" id="Shape" fill="#AAAAAA" sketch:type="MSShapeGroup"></path>
            <path d="M76.58,165.17 C84.34,151.92 94.1,139.88 105.57,129.65 C106.65,130.12 107.74,130.58 108.82,131.05 C100.63,144.23 93.73,158.15 85.35,171.22 C82.42,169.22 79.5,167.2 76.58,165.17 L76.58,165.17 Z" id="Shape" fill="#AAAAAA" sketch:type="MSShapeGroup"></path>
            <path d="M116.53,135.15 C117.36,136.16 118.19,137.16 119.02,138.16 C112.64,151.42 109.34,166.04 101.58,178.65 C98.87,176.94 96.16,175.24 93.46,173.54 C99.64,159.88 108.93,148 116.53,135.15 L116.53,135.15 Z" id="Shape" fill="#AAAAAA" sketch:type="MSShapeGroup"></path>
            <path d="M128.84,160.88 C132.08,154.22 136.11,147.67 142.14,143.19 C142.09,150.19 139.44,156.77 136.85,163.16 C133.61,170.93 130.43,178.72 127.26,186.53 C123.86,185.82 120.49,184.94 117.18,183.91 C121.37,176.39 125.09,168.63 128.84,160.88 L128.84,160.88 Z" id="Shape" fill="#AAAAAA" sketch:type="MSShapeGroup"></path>
            <path d="M209.24,146.83 C223.4,154.05 234.77,165.37 246.66,175.68 C241.74,181.27 236.73,186.78 231.64,192.21 C217.53,185.57 206.1,174.71 194.98,164.02 C198.72,157.52 203.82,151.96 209.24,146.83 L209.24,146.83 Z M206.92,163.12 C212.73,166.41 217.47,171.14 222.47,175.47 C225.26,177.97 228.75,179.59 232.47,180.1 C231.83,176.19 228.98,173.32 226.4,170.55 C221.5,165.39 215.3,161.64 208.69,159.1 C208.09,160.44 207.51,161.78 206.92,163.12 L206.92,163.12 Z" id="Shape" fill="#AAAAAA" sketch:type="MSShapeGroup"></path>
            <path d="M137.12,188.45 C142.13,174.62 144.68,159.75 152.39,147.02 C155.35,153.85 156.83,162.27 152.46,168.85 C155,176.34 152.31,184.07 150.24,191.3 C145.87,190.34 141.5,189.38 137.12,188.45 L137.12,188.45 Z" id="Shape" fill="#AAAAAA" sketch:type="MSShapeGroup"></path>
            <path d="M172.4,153.37 C173.47,151.25 175.3,149.7 177.02,148.13 C178.22,164.46 169.82,179.11 166.13,194.56 C163.1,192.95 160.14,191.21 157.27,189.34 C162.44,177.4 166.33,164.91 172.4,153.37 L172.4,153.37 Z" id="Shape" fill="#AAAAAA" sketch:type="MSShapeGroup"></path>
            <path d="M311.61,159.67 C315.74,157.47 319.86,154.93 324.59,154.26 C324.65,158.88 321.86,163.03 318.94,166.4 C322.13,172.2 321.5,179.15 320.8,185.49 C317.14,188.36 312.27,185.8 308.67,188.52 C305.39,196.72 300.82,205.37 292.54,209.45 C287.83,210.84 283.2,213.01 279.73,216.55 C275.17,223.25 270.19,229.66 265.5,236.26 C267.11,238.85 268.44,241.81 267.41,244.91 C266.75,244.72 265.43,244.34 264.77,244.15 C264.51,244.79 263.99,246.06 263.74,246.7 C262.57,246.82 261.41,246.95 260.26,247.07 C258.82,245.94 257.35,244.84 255.83,243.84 C255.11,242.26 254.42,240.68 253.73,239.09 C253.43,239.77 252.82,241.11 252.52,241.78 C245.07,237.77 238.7,232.17 232.27,226.75 C228.97,224.3 225.58,221.91 223.13,218.55 C221.37,220.21 219.15,222.09 219.4,224.78 C219.73,231.6 224.32,237.43 229.64,241.33 C234.34,245.37 240.82,246.84 244.87,251.71 C244.77,252.11 244.58,252.89 244.49,253.29 C242.71,253.34 240.87,253.51 239.21,252.75 C234.18,251 229,249.41 224.56,246.38 C217.76,241.52 212.02,234.23 211.58,225.58 C212.61,222.15 214.08,218.86 215.48,215.58 C217.08,212.22 220.94,211.08 223.71,208.94 C225.96,206.75 228.01,204.31 229.39,201.47 C233.62,193.33 238.63,185.48 245.24,179.06 C250.38,175.92 255.07,171.84 260.82,169.85 C269.99,167.54 278.85,172.99 288.04,171.97 C291.47,171.44 292.5,167.75 294.41,165.4 C297.83,161.19 303.25,159.46 308.32,158.18 C309.41,158.68 310.51,159.17 311.61,159.67 L311.61,159.67 Z M251.94,231.9 C252.66,232.61 253.39,233.33 254.12,234.05 C254.92,232.96 256.05,231.86 255.55,230.38 C254.05,229.86 253.02,231.1 251.94,231.9 L251.94,231.9 Z" id="Shape" fill-opacity="0.749518795" fill="#0C81EB" sketch:type="MSShapeGroup"></path>
            <path d="M312.46,198.19 C319.81,187.08 330.95,178.55 335.96,165.9 C340.14,168.61 344.09,171.64 347.75,175.03 C345.59,178.05 343.69,181.34 340.92,183.86 C338.89,185.8 335.9,185.4 333.34,185.59 C329.56,192.24 324.38,198.69 316.82,201.08 C315.37,200.11 313.91,199.15 312.46,198.19 L312.46,198.19 Z" id="Shape" fill="#AAAAAA" sketch:type="MSShapeGroup"></path>
            <path d="M182.8,178.82 C185.57,174.53 189.41,171 193.61,168.14 C199.71,171.1 204.88,175.65 208.68,181.25 C216.4,184.44 223.41,189.46 228.21,196.39 C223.08,202 218.02,207.68 213.03,213.43 C201.57,204.87 191.46,194.28 178.45,187.97 C180.14,185.03 181.23,181.81 182.8,178.82 L182.8,178.82 Z M190.35,179.52 C190.86,184.29 194.91,188.12 199.8,187.89 C199.15,186.05 198.74,184.09 197.65,182.45 C195.77,180.45 192.85,180.22 190.35,179.52 L190.35,179.52 Z M205.93,191.75 C206.52,193.84 206.52,196.34 208.25,197.89 C210.27,199.73 213.06,200.22 215.57,201.06 C215.55,198.95 216.06,196.37 214.2,194.83 C212.11,192.49 208.8,192.28 205.93,191.75 L205.93,191.75 Z" id="Shape" fill="#AAAAAA" sketch:type="MSShapeGroup"></path>
            <path d="M342,195.58 C343.46,189.19 349.7,186.18 354.25,182.25 C358.05,186.12 361.87,189.97 365.78,193.73 C359.55,196.65 353.72,201.73 346.39,200.92 C342.47,206.58 335.9,209.2 329.73,211.6 C328.17,210.23 326.61,208.86 325.03,207.51 C330.82,203.69 334.13,195.53 342,195.58 L342,195.58 Z" id="Shape" fill="#AAAAAA" sketch:type="MSShapeGroup"></path>
            <path d="M357.12,215.19 C361.83,212.09 366.83,209.47 371.77,206.76 C374.41,211.81 376.61,217.07 378.36,222.5 C375.72,223.93 373.08,225.5 370.09,226.08 C364.72,227.29 359.25,225.09 353.87,226.24 C347.87,227.52 341.62,228.8 335.53,227.29 C338.01,224.43 340.65,221.55 344.14,219.92 C348.28,217.82 353.24,217.86 357.12,215.19 L357.12,215.19 Z" id="Shape" fill="#AAAAAA" sketch:type="MSShapeGroup"></path>
            <path d="M335.16,233.71 C341.24,229.78 348.67,234.16 355.03,231.19 C363.76,234.39 372.97,228.55 381.65,232.11 C380.7,239.24 378.75,246.21 376.16,252.92 C369.43,249.77 361.39,249.26 355.76,243.98 C355.74,246.1 355.72,248.22 355.73,250.35 C351.07,242.34 341.27,240.2 335.16,233.71 L335.16,233.71 Z" id="Shape" fill="#AAAAAA" sketch:type="MSShapeGroup"></path>
            <path d="M278.37,236.02 C280.72,236.96 283.06,237.9 285.41,238.85 C282.27,245.44 279.98,253.38 273.04,257.04 C273.12,259.4 273.98,262.19 272.22,264.17 C269.4,267.94 266.04,271.25 263.2,275 C260.68,273.41 258.16,271.82 255.65,270.22 C261,257.45 270.98,247.54 278.37,236.02 L278.37,236.02 Z" id="Shape" fill="#AAAAAA" sketch:type="MSShapeGroup"></path>
            <path d="M322.47,241.84 C334.21,242.45 345.54,247.08 354.58,254.53 C362.09,253.53 367.88,258.83 374.13,261.95 C372.61,265.68 371.38,269.67 368.67,272.75 C365.81,275.97 361.79,277.77 358.03,279.69 C350.31,272.53 346.7,260.99 336.51,256.66 C334.95,253.25 333.46,249.67 330.38,247.33 C329.15,248.17 327.93,249.01 326.7,249.86 C329.29,254.89 331.01,261.8 337.21,263.47 C337.12,264.92 336.98,266.37 336.8,267.82 C343.14,271.65 345.48,278.99 348.38,285.36 C343.52,290.27 335.33,290.58 331.68,296.88 C329.86,289 324.25,281.41 326.99,273.04 C324.67,267.53 323.73,261.42 320.34,256.39 C322.21,251.78 322.45,246.76 322.47,241.84 L322.47,241.84 Z" id="Shape" fill="#AAAAAA" sketch:type="MSShapeGroup"></path>
            <path d="M287.6,253.7 C289.86,250.14 292.52,246.86 294.84,243.34 C296.26,245.02 298.17,246.61 298.38,248.96 C297.64,256.16 292.35,261.96 291.58,269.17 C290.84,275.4 289.76,281.69 286.9,287.34 C282.02,286.21 277.7,283.65 273.31,281.36 C275.1,277.77 276.75,274.12 278.62,270.57 C280.25,267.51 283.45,265.86 286.05,263.73 C286.24,260.37 285.5,256.61 287.6,253.7 L287.6,253.7 Z" id="Shape" fill="#AAAAAA" sketch:type="MSShapeGroup"></path>
            <path d="M303.37,292.15 C300.74,277.98 306.53,264.21 312.76,251.82 C314.15,251.69 315.54,251.57 316.94,251.45 C321.35,259.01 316.97,267.8 319.22,275.8 C320.84,281.74 320.87,288.07 319.05,293.98 C313.92,292.71 308.65,292.12 303.37,292.15 L303.37,292.15 Z" id="Shape" fill="#AAAAAA" sketch:type="MSShapeGroup"></path>
        </g>
    </g>
</svg>